<?xml version="1.0" standalone="no"?>
<!DOCTYPE svg PUBLIC "-//W3C//DTD SVG 20010904//EN"
 "http://www.w3.org/TR/2001/REC-SVG-20010904/DTD/svg10.dtd">
<svg version="1.0" xmlns="http://www.w3.org/2000/svg"
 width="19.000000pt" height="16.000000pt" viewBox="0 0 19.000000 16.000000"
 preserveAspectRatio="xMidYMid meet">
<metadata>
Created by potrace 1.14, written by Peter Selinger 2001-2017
</metadata>
<g transform="translate(0.000000,16.000000) scale(0.100000,-0.100000)"
fill="#000000" stroke="none">
<path d="M103 130 c-6 -24 -30 -26 -61 -4 -21 15 -22 14 -22 -19 0 -18 7 -42
15 -53 20 -26 19 -32 -7 -37 -21 -3 -21 -4 6 -12 16 -4 45 -4 65 1 28 7 40 17
55 49 11 22 23 48 28 57 5 13 2 20 -11 28 -32 16 -62 12 -68 -10z"/>
</g>
</svg>
